<svg width="42" height="42" viewBox="0 0 42 42" fill="none" xmlns="http://www.w3.org/2000/svg">
<path d="M21.0369 42.0001C12.5302 42.0211 4.86167 36.8971 1.60668 29.0431C-1.64832 21.1891 0.134931 12.1574 6.14267 6.15142C12.1504 0.145429 21.2031 -1.66057 29.0396 1.61543C32.8793 3.20785 36.1603 5.90354 38.4674 9.36133C40.7744 12.8191 42.0039 16.8836 42.0001 21.0404C42.0001 32.6131 32.6324 41.9791 21.0369 42.0001ZM25.6569 11.6954L25.0059 11.7794C24.6069 11.8634 24.2079 11.9894 23.8299 12.1364C23.0932 12.4585 22.4408 12.9463 21.9235 13.5619C21.4063 14.1775 21.0382 14.9042 20.8479 15.6854C20.6379 16.5044 20.6379 17.3654 20.8479 18.1634C20.0499 18.1634 19.2519 18.0584 18.4959 17.8484C16.1382 17.3222 13.9367 16.2505 12.0682 14.7194C11.4934 14.2687 10.9715 13.7544 10.5124 13.1864C10.3353 13.0118 10.1737 12.8221 10.0294 12.6194C9.7837 13.0487 9.5932 13.5074 9.46242 13.9844C9.26655 14.822 9.27095 15.694 9.47529 16.5295C9.67962 17.3651 10.0781 18.1407 10.6384 18.7934C10.9114 19.1294 11.3314 19.3394 11.6044 19.6334C11.365 19.6753 11.1188 19.6536 10.8904 19.5704C10.5088 19.5074 10.1355 19.4017 9.77742 19.2554L9.21042 19.0454C9.17849 19.9543 9.3917 20.855 9.82769 21.653C10.2637 22.4511 10.9064 23.1172 11.6884 23.5814C12.1924 23.9594 12.7804 24.1904 13.4104 24.2744C13.0744 24.5684 11.5834 24.4424 11.0584 24.3794C11.5834 25.9754 12.8224 27.2144 14.3992 27.7604C14.9032 27.9494 15.4282 28.0334 15.9532 28.0334C15.517 28.399 15.0374 28.7093 14.5252 28.9574C13.5381 29.4961 12.4765 29.8853 11.3752 30.1124C10.8922 30.2174 10.3882 30.1964 9.84217 30.2804C9.28157 30.3223 8.71804 30.3012 8.16217 30.2174L8.62417 30.4904C9.10717 30.7844 9.59017 31.0364 10.1152 31.2464C11.1232 31.6664 12.1522 32.0024 13.2022 32.2544C15.6802 32.7794 18.2649 32.6954 20.7009 32.0024C26.2046 30.2804 29.6906 26.2484 31.0154 20.3054C31.2254 19.1924 31.3094 18.0374 31.2674 16.9034L32.1074 16.2104C32.8055 15.6211 33.4077 14.9268 33.8924 14.1524C32.9443 14.5713 31.9394 14.8473 30.9104 14.9714C31.1204 14.8664 31.3094 14.7194 31.4984 14.5514C32.2964 13.9004 32.8844 13.0394 33.1994 12.0734L32.5484 12.4304C31.696 12.8837 30.7729 13.1891 29.8184 13.3334C29.2904 12.773 28.6466 12.3342 27.9319 12.0477C27.2171 11.7612 26.4486 11.6338 25.6796 11.6744V11.6954H25.6569Z" fill="#B3FFAB"/>
</svg>
